<?xml version="1.0" encoding="UTF-8" standalone="no"?>
<svg xmlns="http://www.w3.org/2000/svg" xmlns:xlink="http://www.w3.org/1999/xlink" width="140" height="190" version="1.0">
  <defs>
    <linearGradient id="a">
      <stop offset="0" stop-color="#ebf0d0"/>
      <stop offset="1" stop-color="#ffffeb"/>
    </linearGradient>
    <linearGradient xlink:href="#a" id="b" x1="2" x2="109" y1="63.099518" y2="128.69501" gradientTransform="translate(0 -1)" gradientUnits="userSpaceOnUse"/>
  </defs>
  <path fill-opacity=".49803922" d="M21 5h103c8.864 0 16 7.136 16 16v153c0 8.864-7.136 16-16 16H21c-8.864 0-16-7.136-16-16V21c0-8.864 7.136-16 16-16z"/>
  <path fill="#fff" d="M17 1h103c8.864 0 16 7.136 16 16v153c0 8.864-7.136 16-16 16H17c-8.864 0-16-7.136-16-16V17C1 8.136 8.136 1 17 1z"/>
  <path fill="#c7891f" d="M19 3h103c8.864 0 16 7.136 16 16v153c0 8.864-7.136 16-16 16H19c-8.864 0-16-7.136-16-16V19c0-8.864 7.136-16 16-16z"/>
  <path fill="url(#b)" d="M18 1.9999995h103c8.864 0 16 7.136 16 16.0000005v153c0 8.864-7.136 16-16 16H18c-8.864 0-16-7.136-16-16V18C2 9.1359995 9.136 1.9999995 18 1.9999995z"/>
  <path fill-rule="evenodd" d="M20.527261 48.67c-2.666384 0-4.829867 3.263523-4.829867 7.285664 0 3.426576 4.392096 9.191666 4.221525 11.929576-1.410251.78242-5.767259-6.43752-8.019053-6.43752-2.666384 0-4.829866 3.26352-4.829866 7.28566 0 4.02215 2.163482 7.28567 4.829866 7.28567 2.312528 0 6.275661-7.21399 8.019053-6.56266L16.990005 82.33l7.023584-.04171S20.936644 69.8071 20.932822 69.512h.055304v.01391c1.707303-.63971 5.805861 6.63217 8.102008 6.63218 2.666387 0 4.829869-3.26352 4.829866-7.28567 0-4.02214-2.163479-7.28566-4.829866-7.28566-2.242624 0-6.307708 7.10053-8.092791 6.368.025077-2.80543 4.359784-8.576287 4.359784-11.999096 0-4.022141-2.16348-7.285664-4.829866-7.285664z"/>
  <path d="M11.67703 42.36822V18.77813L6.44 18.70936l.25258-3.62272 4.95443-3.08853h5.49222v30.37011m13.43356-15.22179c-.00002-3.75078-.26521-6.38974-.79542-7.91687-.52019-1.54049-1.4005-2.31074-2.64104-2.31077-1.24047.00003-2.1258.77028-2.65603 2.31077-.53017 1.52713-.79529 4.16609-.79528 7.91687-.00001 3.791.26511 6.46343.79528 8.01733.53023 1.55391 1.41556 2.33086 2.65603 2.33086 1.23051 0 2.11087-.77695 2.64104-2.33086.53021-1.5539.7954-4.22633.79542-8.01733m5.77721.06028c-.00003 4.96982-.8003 8.80769-2.40094 11.51361-1.6006 2.69254-3.87157 4.03881-6.81273 4.03881-2.95114 0-5.227-1.34627-6.82763-4.03881-1.60063-2.70592-2.40088-6.54379-2.40088-11.51361 0-4.9832.80025-8.82106 2.40088-11.51362 1.60063-2.70591 3.87649-4.05888 6.82763-4.0589 2.94116.00002 5.21213 1.35299 6.81273 4.0589 1.60064 2.69256 2.40091 6.53042 2.40094 11.51362" font-family="Bitstream Vera Sans" font-size="37.418476" font-weight="700"/>
  <path fill-rule="evenodd" d="M117.41824 139.96c2.66638 0 4.82987-3.26352 4.82987-7.28566 0-3.42658-4.3921-9.19167-4.22153-11.92958 1.41025-.78242 5.76726 6.43752 8.01905 6.43752 2.66639 0 4.82987-3.26352 4.82987-7.28566 0-4.02215-2.16348-7.28567-4.82987-7.28567-2.31252 0-6.27566 7.21399-8.01905 6.56266L120.9555 106.3l-7.02359.04171s3.07695 12.48119 3.08077 12.77629h-.05531v-.01391c-1.7073.63971-5.80586-6.63217-8.102-6.63218-2.66639 0-4.82987 3.26352-4.82987 7.28567 0 4.02214 2.16348 7.28566 4.82987 7.28566 2.24262 0 6.3077-7.10053 8.09279-6.368-.02508 2.80543-4.35979 8.57629-4.35979 11.9991 0 4.02214 2.16348 7.28566 4.82987 7.28566z"/>
  <path d="M126.26847 146.26598v23.59009l5.23703.06877-.25258 3.62272-4.95443 3.08853h-5.49222v-30.37011m-13.43356 15.22179c.00002 3.75078.26521 6.38974.79542 7.91687.52019 1.54049 1.4005 2.31074 2.64104 2.31077 1.24047-.00003 2.1258-.77028 2.65603-2.31077.53017-1.52713.79529-4.16609.79528-7.91687.00001-3.791-.26511-6.46343-.79528-8.01733-.53023-1.55391-1.41556-2.33086-2.65603-2.33086-1.23051 0-2.11087.77695-2.64104 2.33086-.53021 1.5539-.7954 4.22633-.79542 8.01733m-5.77721-.06028c.00003-4.96982.8003-8.80769 2.40094-11.51361 1.6006-2.69254 3.87157-4.03881 6.81273-4.03881 2.95114 0 5.227 1.34627 6.82763 4.03881 1.60063 2.70592 2.40088 6.54379 2.40088 11.51361 0 4.9832-.80025 8.82106-2.40088 11.51362-1.60063 2.70591-3.87649 4.05888-6.82763 4.0589-2.94116-.00002-5.21213-1.35299-6.81273-4.0589-1.60064-2.69256-2.40091-6.53042-2.40094-11.51362" font-family="Bitstream Vera Sans" font-size="37.418476" font-weight="700"/>
  <path fill-rule="evenodd" d="M49.198792 36c-1.553156 0-2.813375 1.91778-2.813375 4.281356 0 2.013597 2.558375 5.401401 2.459018 7.010309-.821464.459782-3.359401-3.782951-4.671061-3.782951-1.553156 0-2.813374 1.917778-2.813374 4.281353 0 2.363581 1.260218 4.281359 2.813374 4.281359 1.347037 0 3.655544-4.239237 4.671061-3.856489L47.138357 55.78l4.091205-.024511s-1.792306-7.33446-1.794533-7.507873h.032215v.008174c.994496-.37592 3.381887 3.897336 4.719382 3.897342 1.553158 0 2.813376-1.917779 2.813374-4.281359 0-2.363575-1.260216-4.281354-2.813374-4.281354-1.306318 0-3.674211 4.172564-4.714014 3.742099.014608-1.648586 2.539554-5.039779 2.539554-7.051162C52.012166 37.91778 50.751949 36 49.198792 36zM68.83879 50.22c-1.55315 0-2.81337 1.91778-2.81337 4.281356 0 2.013597 2.55837 5.401401 2.45902 7.010309-.82147.459782-3.3594-3.782951-4.67106-3.782951-1.55316 0-2.81338 1.917778-2.81338 4.281353 0 2.363581 1.26022 4.281359 2.81338 4.281359 1.34703 0 3.65554-4.239237 4.67106-3.856489L66.77836 70l4.0912-.024511s-1.7923-7.33446-1.79453-7.507873h.03222v.008174c.99449-.37592 3.38188 3.897336 4.71938 3.897342 1.55316 0 2.81337-1.917779 2.81337-4.281359 0-2.363575-1.26021-4.281354-2.81337-4.281354-1.30632 0-3.67421 4.172564-4.71402 3.742099.01461-1.648586 2.53956-5.039779 2.53956-7.051162 0-2.363576-1.26022-4.281356-2.81338-4.281356zM90.1988 36.220003c-1.55316 0-2.81338 1.91778-2.81338 4.281356 0 2.013597 2.55838 5.401401 2.45902 7.010309-.82146.459782-3.3594-3.782951-4.67106-3.782951-1.55316 0-2.81338 1.917778-2.81338 4.281353 0 2.36358 1.26022 4.28136 2.81338 4.28136 1.34704 0 3.65554-4.239238 4.67106-3.85649L88.13836 56l4.09121-.02451s-1.79231-7.33446-1.79454-7.50787h.03222v.00817c.99449-.375917 3.38189 3.89734 4.71938 3.89735 1.55316 0 2.81338-1.91778 2.81337-4.281364 0-2.363575-1.26021-4.281354-2.81337-4.281354-1.30632 0-3.67421 4.172564-4.71401 3.742099.0146-1.648586 2.53955-5.039779 2.53955-7.051162 0-2.363576-1.26022-4.281356-2.81337-4.281356zM48.83879 71.219997c-1.55315 0-2.81337 1.91778-2.81337 4.281356 0 2.013597 2.55837 5.401397 2.45902 7.010307-.82147.45978-3.3594-3.782949-4.67106-3.782949C42.26022 78.728711 41 80.64649 41 83.01006c0 2.36358 1.26022 4.28136 2.81338 4.28136 1.34703 0 3.65554-4.23923 4.67106-3.85649L46.77836 91l4.0912-.02451s-1.7923-7.33446-1.79453-7.50788h.03222v.00818c.99449-.37592 3.38188 3.89733 4.71938 3.89734 1.55316 0 2.81337-1.91778 2.81337-4.28136 0-2.36358-1.26021-4.281354-2.81337-4.281354-1.30632 0-3.67421 4.172564-4.71402 3.742094.01461-1.64858 2.53956-5.039774 2.53956-7.051157 0-2.363576-1.26022-4.281356-2.81338-4.281356zM88.19879 70c-1.55316 0-2.81338 1.91778-2.81338 4.281356 0 2.013597 2.55838 5.401401 2.45902 7.010309-.82146.459782-3.3594-3.782951-4.67106-3.782951-1.55316 0-2.81337 1.917778-2.81337 4.281353 0 2.363581 1.26021 4.281359 2.81337 4.281359 1.34704 0 3.65554-4.239237 4.67106-3.856489l-1.70608 7.565058 4.09121-.02451s-1.79231-7.334456-1.79453-7.507869h.03221v.008174c.9945-.37592 3.38189 3.897336 4.71938 3.897342 1.55316 0 2.81338-1.917779 2.81338-4.281359 0-2.363575-1.26022-4.281354-2.81338-4.281354-1.30632 0-3.67421 4.172564-4.71401 3.742099.01461-1.648586 2.53955-5.039779 2.53955-7.051162C91.01216 71.91778 89.75195 70 88.19879 70zm-40.03758 49c1.55315 0 2.81337-1.91778 2.81337-4.28136 0-2.01359-2.55837-5.4014-2.45902-7.0103.82147-.45979 3.35941 3.78295 4.67107 3.78295 1.55315 0 2.81337-1.91778 2.81337-4.28136 0-2.36358-1.26022-4.28136-2.81337-4.28136-1.34704 0-3.65555 4.23924-4.67107 3.85649L50.22164 99.22l-4.0912.02451s1.7923 7.33446 1.79453 7.50787h-.03221v-.00817c-.9945.37592-3.38189-3.89734-4.71939-3.89734-1.55315 0-2.81337 1.91778-2.81337 4.28136 0 2.36357 1.26022 4.28135 2.81337 4.28135 1.30632 0 3.67421-4.17256 4.71402-3.7421-.01461 1.64859-2.53956 5.03978-2.53956 7.05116 0 2.36358 1.26022 4.28136 2.81338 4.28136zm41.64.78c1.55315 0 2.81337-1.91778 2.81337-4.28136 0-2.01359-2.55837-5.4014-2.45902-7.01031.82147-.45978 3.35941 3.78295 4.67107 3.78295 1.55315 0 2.81337-1.91777 2.81337-4.28135s-1.26022-4.28136-2.81337-4.28136c-1.34704 0-3.65555 4.23924-4.67107 3.85649L91.86164 100l-4.0912.02451s1.7923 7.33446 1.79453 7.50787h-.03221v-.00817c-.9945.37592-3.38189-3.89734-4.71939-3.89734-1.55315 0-2.81337 1.91778-2.81337 4.28136 0 2.36357 1.26022 4.28135 2.81337 4.28135 1.30632 0 3.67421-4.17256 4.71402-3.7421-.01461 1.64859-2.53956 5.03978-2.53956 7.05116 0 2.36358 1.26022 4.28136 2.81338 4.28136zm-21 17.22c1.55316 0 2.81338-1.91778 2.81338-4.28135 0-2.0136-2.55838-5.4014-2.45902-7.01031.82146-.45978 3.3594 3.78295 4.67106 3.78295 1.55316 0 2.81337-1.91778 2.81337-4.28135 0-2.36359-1.26021-4.28136-2.81337-4.28136-1.34704 0-3.65554 4.23923-4.67106 3.85649l1.70608-7.56507-4.09121.02451s1.79231 7.33446 1.79454 7.50788h-.03222v-.00818c-.9945.37592-3.38189-3.89733-4.71938-3.89734-1.55316 0-2.81338 1.91778-2.81338 4.28136 0 2.36357 1.26022 4.28135 2.81338 4.28135 1.30632 0 3.67421-4.17256 4.71401-3.7421-.01461 1.64859-2.53955 5.03978-2.53955 7.05117 0 2.36357 1.26022 4.28135 2.81337 4.28135zm21.36 12.78c1.55315 0 2.81337-1.91778 2.81337-4.28136 0-2.01359-2.55837-5.4014-2.45901-7.01031.82146-.45978 3.3594 3.78295 4.67106 3.78295 1.55315 0 2.81337-1.91777 2.81337-4.28135s-1.26022-4.28136-2.81337-4.28136c-1.34704 0-3.65555 4.23924-4.67106 3.85649L92.22164 130l-4.0912.02451s1.7923 7.33446 1.79453 7.50787h-.03221v-.00817c-.9945.37592-3.38189-3.89734-4.71939-3.89734-1.55315 0-2.81337 1.91778-2.81337 4.28136 0 2.36357 1.26022 4.28135 2.81337 4.28135 1.30632 0 3.67422-4.17256 4.71402-3.7421-.01461 1.64859-2.53956 5.03978-2.53956 7.05116 0 2.36358 1.26022 4.28136 2.81338 4.28136zm-41 0c1.55316 0 2.81338-1.91778 2.81338-4.28135 0-2.0136-2.55838-5.4014-2.45902-7.01031.82146-.45978 3.3594 3.78295 4.67106 3.78295 1.55316 0 2.81337-1.91778 2.81337-4.28135 0-2.36358-1.26021-4.28136-2.81337-4.28136-1.34704 0-3.65554 4.23924-4.67106 3.85649L51.22165 130l-4.09121.02452s1.79231 7.33446 1.79453 7.50787h-.03221v-.00818c-.9945.37592-3.38189-3.89733-4.71938-3.89734-1.55316 0-2.81338 1.91778-2.81338 4.28136 0 2.36358 1.26022 4.28136 2.81338 4.28136 1.30632 0 3.67421-4.17257 4.71401-3.7421-.01461 1.64858-2.53955 5.03978-2.53955 7.05116 0 2.36357 1.26021 4.28135 2.81337 4.28135z"/>
</svg>