<?xml version="1.0" encoding="UTF-8"?>
<svg version="1.0" viewBox="0 0 140 190" xmlns="http://www.w3.org/2000/svg" xmlns:xlink="http://www.w3.org/1999/xlink">
<defs>
<linearGradient id="a" x1="2" x2="109" y1="63.1" y2="128.7" gradientTransform="translate(0 -1)" gradientUnits="userSpaceOnUse">
<stop stop-color="#ebf0d0" offset="0"/>
<stop stop-color="#ffffeb" offset="1"/>
</linearGradient>
</defs>
<path d="M21 5h103c8.864 0 16 7.136 16 16v153c0 8.864-7.136 16-16 16H21c-8.864 0-16-7.136-16-16V21c0-8.864 7.136-16 16-16z" fill-opacity=".49804"/>
<path d="M17 1h103c8.864 0 16 7.136 16 16v153c0 8.864-7.136 16-16 16H17c-8.864 0-16-7.136-16-16V17C1 8.136 8.136 1 17 1z" fill="#fff"/>
<path d="M19 3h103c8.864 0 16 7.136 16 16v153c0 8.864-7.136 16-16 16H19c-8.864 0-16-7.136-16-16V19c0-8.864 7.136-16 16-16z" fill="#c7891f"/>
<path d="M18 2h103c8.864 0 16 7.136 16 16v153c0 8.864-7.136 16-16 16H18c-8.864 0-16-7.136-16-16V18C2 9.136 9.136 2 18 2z" fill="url(#a)"/>
<path d="M21.069 27.43c-1.119 0-1.96.441-2.526 1.325-.553.871-.83 2.184-.83 3.939 0 1.754.277 3.074.83 3.958.565.87 1.407 1.306 2.526 1.306 1.13 0 1.971-.435 2.525-1.306.565-.884.847-2.204.847-3.958 0-1.755-.282-3.068-.847-3.939-.554-.884-1.396-1.326-2.525-1.326m7.908-14.407v5.546c-1.053-.603-2.044-1.045-2.974-1.326a8.998 8.998 0 0 0-2.725-.442c-1.905 0-3.389.643-4.452 1.929-1.063 1.272-1.684 3.168-1.86 5.686a7.51 7.51 0 0 1 2.375-1.467c.853-.335 1.783-.502 2.79-.502 2.537 0 4.58.897 6.131 2.692 1.562 1.796 2.343 4.146 2.343 7.053 0 3.215-.87 5.794-2.609 7.736-1.738 1.93-4.07 2.894-6.994 2.894-3.223 0-5.72-1.313-7.492-3.939-1.761-2.638-2.642-6.376-2.642-11.212 0-4.956 1.03-8.848 3.09-11.674 2.071-2.84 4.907-4.26 8.506-4.26 1.141 0 2.249.107 3.323.322a17.54 17.54 0 0 1 3.19.964M117.852 161.901c1.118 0 1.96-.442 2.525-1.326.554-.87.83-2.184.83-3.939 0-1.754-.276-3.074-.83-3.958-.565-.87-1.407-1.306-2.525-1.306-1.13 0-1.972.435-2.526 1.306-.565.884-.847 2.204-.847 3.958 0 1.755.282 3.068.847 3.939.554.884 1.396 1.326 2.526 1.326m-7.908 14.407v-5.546c1.052.603 2.043 1.045 2.973 1.326.93.295 1.839.442 2.725.442 1.905 0 3.39-.643 4.452-1.929 1.064-1.272 1.684-3.168 1.861-5.686a7.51 7.51 0 0 1-2.376 1.467c-.853.335-1.783.502-2.79.502-2.537 0-4.58-.897-6.131-2.692-1.562-1.795-2.342-4.146-2.342-7.053 0-3.215.869-5.794 2.608-7.736 1.739-1.93 4.07-2.894 6.994-2.894 3.223 0 5.72 1.313 7.493 3.939 1.76 2.639 2.641 6.376 2.641 11.212 0 4.956-1.03 8.848-3.09 11.674-2.071 2.84-4.906 4.26-8.506 4.26-1.14 0-2.248-.107-3.323-.321a17.54 17.54 0 0 1-3.19-.965"/>
<path d="M20.527 48.665c-2.666 0-4.83 3.264-4.83 7.286 0 3.426 4.392 9.191 4.222 11.93-1.41.782-5.767-6.438-8.02-6.438-2.666 0-4.829 3.263-4.829 7.285 0 4.023 2.163 7.286 4.83 7.286 2.312 0 6.276-7.214 8.019-6.563L16.99 82.325l7.024-.042s-3.077-12.48-3.081-12.776h.055v.014c1.707-.64 5.806 6.632 8.102 6.632 2.667 0 4.83-3.263 4.83-7.286 0-4.022-2.163-7.285-4.83-7.285-2.242 0-6.308 7.1-8.093 6.368.025-2.806 4.36-8.577 4.36-12 0-4.021-2.163-7.285-4.83-7.285zM117.823 139.963c2.666 0 4.83-3.264 4.83-7.286 0-3.427-4.392-9.192-4.222-11.93 1.41-.782 5.767 6.438 8.02 6.438 2.666 0 4.829-3.264 4.829-7.286s-2.163-7.286-4.83-7.286c-2.312 0-6.276 7.214-8.019 6.563l2.929-12.874-7.024.042s3.077 12.481 3.081 12.777h-.055v-.014c-1.707.64-5.806-6.633-8.102-6.633-2.667 0-4.83 3.264-4.83 7.286s2.163 7.286 4.83 7.286c2.242 0 6.308-7.1 8.093-6.368-.025 2.805-4.36 8.576-4.36 11.999 0 4.022 2.163 7.286 4.83 7.286zM51.199 45c-1.553 0-2.814 1.918-2.814 4.281 0 2.014 2.559 5.402 2.46 7.01-.822.46-3.36-3.782-4.672-3.782-1.553 0-2.813 1.917-2.813 4.281s1.26 4.281 2.813 4.281c1.347 0 3.656-4.239 4.671-3.856l-1.706 7.565 4.092-.025s-1.793-7.334-1.795-7.507h.032v.008c.995-.376 3.382 3.897 4.72 3.897 1.553 0 2.813-1.918 2.813-4.281 0-2.364-1.26-4.282-2.813-4.282-1.307 0-3.675 4.173-4.714 3.743.014-1.65 2.54-5.04 2.54-7.052 0-2.363-1.261-4.281-2.814-4.281zM87.199 45c-1.553 0-2.814 1.918-2.814 4.281 0 2.014 2.559 5.402 2.46 7.01-.822.46-3.36-3.782-4.672-3.782-1.553 0-2.813 1.917-2.813 4.281s1.26 4.281 2.813 4.281c1.347 0 3.656-4.239 4.671-3.856l-1.706 7.565 4.092-.025s-1.793-7.334-1.795-7.507h.032v.008c.995-.376 3.382 3.897 4.72 3.897 1.553 0 2.813-1.918 2.813-4.281 0-2.364-1.26-4.282-2.813-4.282-1.307 0-3.675 4.173-4.714 3.743.014-1.65 2.54-5.04 2.54-7.052 0-2.363-1.261-4.281-2.814-4.281zM51.199 81c-1.553 0-2.814 1.918-2.814 4.281 0 2.014 2.559 5.402 2.46 7.01-.822.46-3.36-3.782-4.672-3.782-1.553 0-2.813 1.918-2.813 4.281 0 2.364 1.26 4.281 2.813 4.281 1.347 0 3.656-4.239 4.671-3.856l-1.706 7.565 4.092-.025s-1.793-7.334-1.795-7.507h.032v.008c.995-.376 3.382 3.897 4.72 3.897 1.553 0 2.813-1.918 2.813-4.281 0-2.364-1.26-4.282-2.813-4.282-1.307 0-3.675 4.173-4.714 3.743.014-1.65 2.54-5.04 2.54-7.052 0-2.363-1.261-4.281-2.814-4.281zM86.801 101c1.553 0 2.814-1.918 2.814-4.281 0-2.014-2.559-5.402-2.46-7.01.822-.46 3.36 3.782 4.672 3.782 1.553 0 2.813-1.917 2.813-4.281s-1.26-4.281-2.813-4.281c-1.347 0-3.656 4.239-4.671 3.856l1.706-7.565-4.092.025s1.793 7.334 1.795 7.507h-.032v-.008c-.995.376-3.382-3.897-4.72-3.897-1.553 0-2.813 1.918-2.813 4.281 0 2.364 1.26 4.282 2.813 4.282 1.307 0 3.675-4.173 4.714-3.742-.014 1.648-2.54 5.04-2.54 7.05 0 2.364 1.261 4.282 2.814 4.282zM88.161 142c1.553 0 2.814-1.918 2.814-4.281 0-2.014-2.559-5.402-2.46-7.01.822-.46 3.36 3.782 4.672 3.782 1.553 0 2.813-1.917 2.813-4.281s-1.26-4.281-2.813-4.281c-1.347 0-3.656 4.239-4.671 3.856l1.706-7.565-4.092.025s1.793 7.334 1.795 7.507h-.032v-.008c-.995.376-3.382-3.897-4.72-3.897-1.553 0-2.813 1.918-2.813 4.281 0 2.364 1.26 4.282 2.813 4.282 1.307 0 3.675-4.173 4.714-3.743-.014 1.65-2.54 5.04-2.54 7.052 0 2.363 1.261 4.281 2.814 4.281zM52.801 141.78c1.553 0 2.814-1.918 2.814-4.281 0-2.014-2.559-5.402-2.46-7.01.822-.46 3.36 3.782 4.672 3.782 1.553 0 2.813-1.917 2.813-4.281s-1.26-4.281-2.813-4.281c-1.347 0-3.656 4.239-4.671 3.856L54.862 122l-4.092.025s1.793 7.334 1.795 7.507h-.032v-.008c-.995.376-3.382-3.897-4.72-3.897-1.553 0-2.813 1.918-2.813 4.281 0 2.364 1.26 4.282 2.813 4.282 1.307 0 3.675-4.173 4.714-3.743-.014 1.65-2.54 5.04-2.54 7.052 0 2.363 1.261 4.281 2.814 4.281z" fill-rule="evenodd"/>
</svg>
