<?xml version="1.0" encoding="UTF-8" standalone="no"?>
<svg xmlns="http://www.w3.org/2000/svg" xmlns:xlink="http://www.w3.org/1999/xlink" width="140" height="190" version="1.0">
  <defs>
    <path id="l" fill="#fff" d="M349 239.86218c0 11.868-9.408 21.5-21 21.5s-21-9.632-21-21.5 9.408-21.5 21-21.5 21 9.632 21 21.5z"/>
    <path id="m" fill="#b67870" d="M331.000137 240.36235572c0 9.93600828-5.37600403 18.000015-12.000009 18.000015-6.62400497 0-12.000009-8.06400672-12.000009-18.000015 0-9.93600828 5.37600403-18.000015 12.000009-18.000015 6.62400497 0 12.000009 8.06400672 12.000009 18.000015z"/>
    <path id="n" d="M322.000079 241.86228557c0 8.0040047-3.36000134 14.5000085-7.500003 14.5000085s-7.500003-6.4960038-7.500003-14.5000085c0-8.00400469 3.36000134-14.5000085 7.500003-14.5000085s7.500003 6.49600381 7.500003 14.5000085z"/>
  </defs>
  <defs>
    <linearGradient id="a">
      <stop offset="0" stop-color="#ebf0d0"/>
      <stop offset="1" stop-color="#ffffeb"/>
    </linearGradient>
    <linearGradient xlink:href="#a" id="h" x1="2" x2="109" y1="63.099518" y2="128.69501" gradientTransform="translate(0 -1)" gradientUnits="userSpaceOnUse"/>
    <linearGradient id="e">
      <stop offset="0" stop-color="#c10000"/>
      <stop offset="1" stop-color="#ff433e"/>
    </linearGradient>
    <linearGradient id="f">
      <stop offset="0" stop-color="#f0a700"/>
      <stop offset="1" stop-color="#ffed00"/>
    </linearGradient>
    <linearGradient id="c">
      <stop offset="0" stop-color="#f0eb00"/>
      <stop offset="1" stop-color="#ff0"/>
    </linearGradient>
    <linearGradient id="b">
      <stop offset="0" stop-color="#ffd8c1"/>
      <stop offset="1" stop-color="#ffeded"/>
    </linearGradient>
    <linearGradient id="g">
      <stop offset="0" stop-color="#fff"/>
      <stop offset="1" stop-color="#fff" stop-opacity="0"/>
    </linearGradient>
    <linearGradient id="d">
      <stop offset="0" stop-color="#ff44ab"/>
      <stop offset="1" stop-color="#f6c"/>
    </linearGradient>
    <linearGradient xlink:href="#b" id="i" x1="356.44232" x2="484.79608" y1="437.49887" y2="256.17966" gradientTransform="matrix(.18682 0 0 .14486 -49.31979 316.0493)" gradientUnits="userSpaceOnUse"/>
    <linearGradient xlink:href="#c" id="j" x1="25.75" x2="32.217068" y1="103.13147" y2="101.98242" gradientTransform="translate(-19.62666 283.2938)" gradientUnits="userSpaceOnUse"/>
    <linearGradient xlink:href="#d" id="k" x1="298.98572" x2="449.32318" y1="540.53918" y2="415.53949" gradientTransform="translate(-26.92459 326.6897) scale(.14486)" gradientUnits="userSpaceOnUse"/>
    <linearGradient xlink:href="#e" id="o" x1="294.24606" x2="312.09238" y1="346.32654" y2="322.13895" gradientTransform="translate(-26.52689 329.3826) scale(.14486)" gradientUnits="userSpaceOnUse"/>
    <linearGradient xlink:href="#f" id="p" x1="32.463516" x2="60" y1="58.34021" y2="51.180752" gradientTransform="translate(-19.62666 283.2938)" gradientUnits="userSpaceOnUse"/>
    <linearGradient xlink:href="#c" id="q" x1="32.968857" x2="60.722794" y1="63.941719" y2="56.605484" gradientTransform="translate(-19.62666 283.2938)" gradientUnits="userSpaceOnUse"/>
    <linearGradient xlink:href="#c" id="r" x1="58.247921" x2="61.035088" y1="104.91566" y2="103.1479" gradientTransform="translate(-19.62666 283.2938)" gradientUnits="userSpaceOnUse"/>
    <linearGradient xlink:href="#c" id="s" x1="36.313263" x2="43.598351" y1="116.76148" y2="110.92786" gradientTransform="translate(-16.30671 286.4125)" gradientUnits="userSpaceOnUse"/>
    <linearGradient xlink:href="#g" id="t" x1="688.30371" x2="361.49808" y1="-31.9296" y2="346.66711" gradientTransform="matrix(.18682 0 0 .14486 -49.61999 316.6734)" gradientUnits="userSpaceOnUse"/>
  </defs>
  <path fill-opacity=".49803922" d="M21 5h103c8.864 0 16 7.136 16 16v153c0 8.864-7.136 16-16 16H21c-8.864 0-16-7.136-16-16V21c0-8.864 7.136-16 16-16z"/>
  <path fill="#fff" d="M17 1h103c8.864 0 16 7.136 16 16v153c0 8.864-7.136 16-16 16H17c-8.864 0-16-7.136-16-16V17C1 8.136 8.136 1 17 1z"/>
  <path fill="#c7891f" d="M19 3h103c8.864 0 16 7.136 16 16v153c0 8.864-7.136 16-16 16H19c-8.864 0-16-7.136-16-16V19c0-8.864 7.136-16 16-16z"/>
  <path fill="url(#h)" d="M18 1.9999995h103c8.864 0 16 7.136 16 16.0000005v153c0 8.864-7.136 16-16 16H18c-8.864 0-16-7.136-16-16V18C2 9.1359995 9.136 1.9999995 18 1.9999995z"/>
  <path d="M10.02718 12.240088h6.396153v10.951084l9.220428-10.951084h7.426182L21.12492 26.446356l13.174414 15.793673h-8.007651l-9.86835-11.815114v11.815114H10.02718V12.240088m118.6356 164.389882h-6.39616v-10.95109l-9.22043 10.95109h-7.42618l11.94502-14.20628-13.17441-15.79367h8.00766l9.86834 11.81512v-11.81512h6.39616v29.99995" font-family="Bitstream Vera Sans" font-size="37.418766" font-weight="700"/>
  <path fill-rule="evenodd" d="M20.527261 48.665c-2.666384 0-4.829867 3.263523-4.829867 7.285664 0 3.426576 4.392096 9.191666 4.221525 11.929576-1.410251.78242-5.767259-6.43752-8.019053-6.43752-2.666384 0-4.829866 3.26352-4.829866 7.28566 0 4.02215 2.163482 7.28567 4.829866 7.28567 2.312528 0 6.275661-7.21399 8.019053-6.56266L16.990005 82.325l7.023584-.04171S20.936644 69.8021 20.932822 69.507h.055304v.01391c1.707303-.63971 5.805861 6.63217 8.102008 6.63218 2.666387 0 4.829869-3.26352 4.829866-7.28567 0-4.02214-2.163479-7.28566-4.829866-7.28566-2.242624 0-6.307708 7.10053-8.092791 6.368.025077-2.80543 4.359784-8.576287 4.359784-11.999096 0-4.022141-2.16348-7.285664-4.829866-7.285664zm96.890979 91.2975c2.66638 0 4.82987-3.26352 4.82987-7.28566 0-3.42658-4.3921-9.19167-4.22153-11.92958 1.41025-.78242 5.76726 6.43752 8.01905 6.43752 2.66639 0 4.82987-3.26352 4.82987-7.28566 0-4.02215-2.16348-7.28567-4.82987-7.28567-2.31252 0-6.27566 7.21399-8.01905 6.56266l2.92892-12.87361-7.02359.04171s3.07695 12.48119 3.08077 12.77629h-.05531v-.01391c-1.7073.63971-5.80586-6.63217-8.102-6.63218-2.66639 0-4.82987 3.26352-4.82987 7.28567 0 4.02214 2.16348 7.28566 4.82987 7.28566 2.24262 0 6.3077-7.10053 8.09279-6.368-.02508 2.80543-4.35979 8.57629-4.35979 11.9991 0 4.02214 2.16348 7.28566 4.82987 7.28566z"/>
  <g transform="matrix(1.00012 0 0 1 45.24988 -276.25)">
    <path d="M22.868703 329.58896c-1.984184-1.6215-3.418098-2.63065-5.77799-5.11869-1.766011 7.18473-4.002336 6.15439-7.027858 3.61115-3.018518-3.03581-2.781058 11.10316-8.602627-1.83598-1.678019.2303 1.737712 10.87919 2.201224 15.0188 3.469179 4.89443-2.011403 11.09632-.275714 14.59782 5.736827-.37639.64032 6.22616 2.358153 9.76036.373386 4.6799 2.021301 8.45652 2.660699 12.73388 9.695747 4.43124-8.41964 7.46303-4.221134 11.01299.794564 3.26584-1.558658 9.16934-.560116 13.58076-.712464 5.99944-.62702 11.41412 6.75 11.6875 12.780602 2.47945 25.816934 2.3938 37.875-2.34375.134586-6.98743-.095221-14.90643-.21875-21.34375 3.164713-3.8642-7.895168-6.49837-10.379637-9.98206 3.527406-4.32119 2.310292-12.72433 9.464364-13.32683.759407-6.25904-1.413611-13.95913-4.740977-19.84736 1.070328-7.66041 2.342735-15.29527 3.0625-23-7.169641 14.7944-4.28406-3.01395-7.450913 4.0129-2.050713 2.30711-3.298268-.73022-4.603911-.61039-1.296368-5.81763-3.648022 7.24466-5.382676-3.65251-2.244098 9.14113-2.866345-6.30172-4.453087 3.07223l-.67655 1.97293z"/>
    <path fill="url(#i)" d="M41.252239 363.39685c0 11.41333-7.563868 20.67633-16.883635 20.67633-9.319767 0-16.883635-9.263-16.883635-20.67633s7.563868-20.67633 16.883635-20.67633c9.319767 0 16.883635 9.263 16.883635 20.67633z"/>
    <path fill="url(#j)" fill-rule="evenodd" d="m7.87334 389.5438-2.045495-1.42678 6.78033-5.53033 1.515165 3.20711s-5.918894 4.01925-6.25 3.75z"/>
    <path fill="url(#k)" d="M18.343298 383.21123c-7.049056 0-12.724818 5.67576-12.724818 12.72481v14.92936c9.379895 4.64913 29.526179 4.89382 40.618906 0v-14.92936c0-7.04905-5.675755-12.72481-12.724811-12.72481H18.343298z"/>
    <path fill="#6d2b00" fill-rule="evenodd" d="M4.82991 354.0955s1.697949-14.37493 20.611772-14.41037c19.976253.81952 19.99724 26.49551 19.99724 26.49551-4.852885 1.57731-3.505094 3.25835-10.747122.76005.791673-5.69899-.499458-9.87884-3.925129-12.81513-4.268891 2.23887-21.563715 1.50448-25.936761-.03006z"/>
    <g transform="matrix(.14486 0 0 .0979 -26.7253 340.1127)">
      <use xlink:href="#l"/>
      <use xlink:href="#m"/>
      <use xlink:href="#n"/>
    </g>
    <g transform="matrix(.14486 0 0 .0979 -36.8138 339.7718)">
      <use xlink:href="#l"/>
      <use xlink:href="#m"/>
      <use xlink:href="#n"/>
    </g>
    <path fill="url(#o)" fill-rule="evenodd" d="M12.818066 376.77903c2.920276.13892 7.302222.33556 11.727824 0-4.653998-1.71785-7.920837-2.24609-11.727824 0z"/>
    <path fill="#b30d95" d="m32.440844 399.09034 1.26359.12326 1.371356 14.51276-3.465186.2504.83024-14.88642z"/>
    <path fill-rule="evenodd" d="M14.479613 364.98889c-.7919 1.28683-1.944897 3.40242-1.780637 4.37486.16427.97244 1.652377.76247 2.442337 1.32308l.33085-.47789c-.69469-.49301-1.782922-.00802-1.917982-.80757-.13505-.79956.681072-2.91486 1.421702-4.1184l-.49627-.29408z"/>
    <path fill="#6d2b00" fill-rule="evenodd" d="M16.215497 377.57251c1.103997 2.33664-.66812 2.35836-1.458149 2.73082-.614295-.46097-1.929578-1.8291-2.3377-2.78488-.128406 5.30672 1.72452 8.20339 3.068023 9.66903 1.343503 1.46564 9.282384 2.56487 13.557165 0 4.274782-2.56487 13.238881-11.33624 8.362273-18.51778-.667665.46471-1.884037.36324-2.743988.19728.122137 1.58778-2.018658 6.19015-5.92703 7.90006-3.908372 1.70992-6.723191 2.12332-7.752272 3.65593-2.011168.05948-3.133553-.74848-2.221615-2.8323-.491043.16096-2.006173-.02066-2.546707-.01816zm.918962-5.36352s-7.085056 1.82387-7.505951 3.08656c-.420894 1.26268 1.052237 2.73581 1.052237 2.73581s4.629838-3.8582 6.594012-3.78805c-.140298-.49104.07015-1.12238-.140298-2.03432z"/>
    <path fill="#6d2b00" fill-rule="evenodd" d="M17.672983 372.22956s7.408464.11546 8.187847 1.19439c.779381 1.07893-.18555 2.92531-.18555 2.92531s-5.742021-2.87813-7.595245-2.22356c-.013037-.51052-.33503-.96301-.407052-1.89614z"/>
    <path fill="url(#p)" fill-rule="evenodd" d="m6.446563 336.67768 2.588389-6.60355 5.088388 6.96967 3.573223-8.73744 4.457107 8.5481s3.131282-8.84056 3.131282-8.164c0 .67656 3.295495 9.22466 3.295495 9.22466l3.75-8.19454 2.490115 8.10615 4.302778-7.03293 1.25 6.25v5s-27.5 1.25-30 0-4.013826-5.22161-3.926777-5.36612z"/>
    <path fill="url(#q)" fill-rule="evenodd" d="M7.15501 348.22429c10.076271 2.38648 22.627416 2.47487 33.145629 0l2.386487-16.52862-4.596195 6.54073-2.828427-7.42462-3.535534 7.24785-3.623922-8.30851-3.270369 8.22012-3.71231-8.04334-3.27037 8.75045-4.861359-7.6014-3.623922 7.86656-5.568466-6.89429s3.093592 15.82151 3.358758 16.17507z"/>
    <path fill="url(#r)" fill-rule="evenodd" d="M37.648989 382.78413c-.672096.50967-2.916815 2.38649-2.916815 2.38649l9.391166 6.87318 2.5-2.5-8.974351-6.75967z"/>
    <path fill="#ff8900" fill-rule="evenodd" d="m23.532686 399.85249-6.941713-7.94776h17.404585l-10.462872 7.94776z"/>
    <path fill="url(#s)" fill-rule="evenodd" d="m21.258337 394.01349-2.754387 3.39645 3.93934 2.7526-4.278544 3.06445 2.851767 2.832 2.893476-4.92418 2.990408 4.82323 3.042893-3.2955-5-2.5 4.722272-3.21967-3.118719-2.7526-2.548466 4.98744-2.74004-5.16422z"/>
    <path fill="url(#t)" d="m17.385613 328.91791-2.53125 6.1875-2.15625-3.40625-1.25 2.71875-2.7187498-3.71875-2.21875 5.6875-3-3.71875s3.07858 15.83395 3.34375 16.1875c.00964.00228.0216-.00228.03125 0-1.94548 3.09544-2.34375 5.875-2.34375 5.875.86733.30435 2.50601.5568 4.1875.78125-.96612 2.60342-1.53125 5.45559-1.53125 8.5 0 4.21741 1.03997 8.13493 2.8124998 11.40625-.2398598.17339-.6340998.3398-.6874998.5-.42089 1.26268 1.0624998 2.75 1.0624998 2.75s.78779-.56256 1.1875-.875c.1986.27012.35268.58679.5625.84375.00387 2.65104.5175 4.60405 1.1875 6.125-.07887.0314-.17192.02958-.25.0625l-.75-1.625-6.7812498 5.53125 1.84375 1.3125c-1.18474 1.93422-2.0625 4.08782-2.0625 6.53126v14.90625c6.0123598 2.98001 16.3603598 3.92627 25.9999998 3.09375v.03125l3.4375-.25v-.03125c4.13452-.57877 8.05206-1.46048 11.1875-2.84375v-14.90625c0-1.7779-.37817-3.46587-1.03125-5.00001l1.40625-1.40625-8.96875-6.75c-.23706.17977-.57039.46615-1.03125.84375-.93882-.23512-1.92747-.39146-2.9375-.40625 2.43804-2.53454 4.70976-5.74921 5.0625-9.125.92232-1.85096 1.6198-3.85822 2.03125-6.03125 1.25429-.27217 2.1273-1.08428 4.65625-1.90625 0 0-.04063-10.2699-5.125-18.03125.02623-.18164 2.375-16.4375 2.375-16.4375l-2.625 3.75-.9375-4.65625-2.375 3.90625-1.5-3.875-1.59375 3.25-1.3125-4.34375-2.1875 4.78125-2.0625-4.75-1.28125 3.21875c-.76089-2.06382-1.53125-3.96722-1.53125-4.28125 0-.46436-1.23094 3.027-2.15625 5.59375l-2-4.375-1.09375 2.875-2.34375-4.5z"/>
  </g>
</svg>